<svg width="24" height="24" viewBox="0 0 24 24" fill="none" xmlns="http://www.w3.org/2000/svg">
<path d="M7.21965 14.2874L11.7144 18.7804C11.9805 19.0464 12.3968 19.0708 12.6904 18.8535L12.7745 18.781L17.2794 14.288C17.5726 13.9956 17.5731 13.5209 17.2805 13.2278C17.0145 12.9614 16.5979 12.9367 16.3041 13.1542L16.2199 13.2267L12.997 16.4421V4.74966C12.997 4.37014 12.7148 4.05648 12.3488 4.00684L12.247 4C11.8673 4 11.5535 4.28203 11.5038 4.64793L11.497 4.74966V16.4441L8.28035 13.2273C8.01409 12.9611 7.59743 12.9369 7.30381 13.1547L7.21969 13.2272C6.95341 13.4934 6.92919 13.9098 7.14704 14.2033L7.21965 14.2874Z" fill="#030303"/>
</svg>
